<svg width="78" height="78" viewBox="0 0 78 78" fill="none" xmlns="http://www.w3.org/2000/svg">
<g filter="url(#filter0_d_34_230)">
<circle cx="38.8452" cy="18.8452" r="18.8452" fill="white"/>
</g>
<path d="M39 20.083L44.5037 25.5955C44.6685 25.7603 44.892 25.8528 45.125 25.8528C45.358 25.8528 45.5815 25.7603 45.7462 25.5955C45.911 25.4307 46.0036 25.2073 46.0036 24.9742C46.0036 24.7412 45.911 24.5178 45.7462 24.353L40.2337 18.8492L45.7462 13.3455C45.911 13.1807 46.0036 12.9573 46.0036 12.7242C46.0036 12.4912 45.911 12.2678 45.7462 12.103C45.5815 11.9382 45.358 11.8457 45.125 11.8457C44.892 11.8457 44.6685 11.9382 44.5037 12.103L39 17.6155L33.4962 12.103C33.4149 12.021 33.3181 11.9559 33.2115 11.9115C33.1049 11.867 32.9905 11.8442 32.875 11.8442C32.7595 11.8442 32.6451 11.867 32.5385 11.9115C32.4319 11.9559 32.3351 12.021 32.2537 12.103C32.1717 12.1843 32.1066 12.2811 32.0622 12.3877C32.0178 12.4944 31.9949 12.6087 31.9949 12.7242C31.9949 12.8398 32.0178 12.9541 32.0622 13.0607C32.1066 13.1674 32.1717 13.2642 32.2537 13.3455L37.7662 18.8492L32.2537 24.353C32.1717 24.4343 32.1066 24.5311 32.0622 24.6377C32.0178 24.7444 31.9949 24.8587 31.9949 24.9742C31.9949 25.0898 32.0178 25.2041 32.0622 25.3107C32.1066 25.4174 32.1717 25.5141 32.2537 25.5955C32.3351 25.6775 32.4319 25.7426 32.5385 25.787C32.6451 25.8314 32.7595 25.8543 32.875 25.8543C32.9905 25.8543 33.1049 25.8314 33.2115 25.787C33.3181 25.7426 33.4149 25.6775 33.4962 25.5955L39 20.083Z" fill="#67C2C7"/>
<defs>
<filter id="filter0_d_34_230" x="0" y="0" width="77.6904" height="77.6904" filterUnits="userSpaceOnUse" color-interpolation-filters="sRGB">
<feFlood flood-opacity="0" result="BackgroundImageFix"/>
<feColorMatrix in="SourceAlpha" type="matrix" values="0 0 0 0 0 0 0 0 0 0 0 0 0 0 0 0 0 0 127 0" result="hardAlpha"/>
<feOffset dy="20"/>
<feGaussianBlur stdDeviation="10"/>
<feColorMatrix type="matrix" values="0 0 0 0 0 0 0 0 0 0 0 0 0 0 0 0 0 0 0.2 0"/>
<feBlend mode="normal" in2="BackgroundImageFix" result="effect1_dropShadow_34_230"/>
<feBlend mode="normal" in="SourceGraphic" in2="effect1_dropShadow_34_230" result="shape"/>
</filter>
</defs>
</svg>
