<svg width="38" height="38" viewBox="0 0 38 38" fill="none" xmlns="http://www.w3.org/2000/svg">
<circle cx="18.8452" cy="18.8452" r="18.8452" fill="#F2F4F7"/>
<path d="M19 20.083L24.5038 25.5955C24.6685 25.7603 24.892 25.8528 25.125 25.8528C25.358 25.8528 25.5815 25.7603 25.7463 25.5955C25.911 25.4307 26.0036 25.2073 26.0036 24.9743C26.0036 24.7412 25.911 24.5178 25.7463 24.353L20.2338 18.8493L25.7463 13.3455C25.911 13.1807 26.0036 12.9573 26.0036 12.7243C26.0036 12.4912 25.911 12.2678 25.7463 12.103C25.5815 11.9382 25.358 11.8457 25.125 11.8457C24.892 11.8457 24.6685 11.9382 24.5038 12.103L19 17.6155L13.4963 12.103C13.4149 12.021 13.3182 11.9559 13.2115 11.9115C13.1049 11.867 12.9905 11.8442 12.875 11.8442C12.7595 11.8442 12.6451 11.867 12.5385 11.9115C12.4319 11.9559 12.3351 12.021 12.2538 12.103C12.1718 12.1843 12.1067 12.2811 12.0622 12.3877C12.0178 12.4944 11.9949 12.6087 11.9949 12.7243C11.9949 12.8398 12.0178 12.9541 12.0622 13.0608C12.1067 13.1674 12.1718 13.2642 12.2538 13.3455L17.7663 18.8493L12.2538 24.353C12.1718 24.4343 12.1067 24.5311 12.0622 24.6377C12.0178 24.7444 11.9949 24.8587 11.9949 24.9743C11.9949 25.0898 12.0178 25.2041 12.0622 25.3108C12.1067 25.4174 12.1718 25.5142 12.2538 25.5955C12.3351 25.6775 12.4319 25.7426 12.5385 25.787C12.6451 25.8315 12.7595 25.8543 12.875 25.8543C12.9905 25.8543 13.1049 25.8315 13.2115 25.787C13.3182 25.7426 13.4149 25.6775 13.4963 25.5955L19 20.083Z" fill="black"/>
</svg>
