<svg width="146" height="62" viewBox="0 0 146 62" fill="none" xmlns="http://www.w3.org/2000/svg">
<g id="VEVA_Logo_main 1" clip-path="url(#clip0_5114_4500)">
<g id="&#208;&#161;&#208;&#187;&#208;&#190;&#208;&#185;_x0020_1">
<g id="_2783677510944">
<path id="Vector" fill-rule="evenodd" clip-rule="evenodd" d="M40.6471 0.582566H40.6439H36.2522C36.2522 0.582566 31.5273 0.232056 28.0995 6.13208C24.6734 12.032 20.6967 18.8779 20.6967 18.8779C20.6967 18.8779 16.7216 12.0319 13.2938 6.13208C9.86754 0.23218 5.14118 0.582566 5.14118 0.582566H0.750779C0.176256 0.582566 -0.176897 1.20061 0.0913707 1.69475L20.04 36.0416C20.168 36.2732 20.4141 36.4297 20.6967 36.4297C20.9821 36.4297 21.2317 36.27 21.3579 36.0348L41.2689 1.75429C41.5971 1.26325 41.2515 0.584179 40.6471 0.582566Z" fill="#1CBBEE"/>
<path id="Vector_2" fill-rule="evenodd" clip-rule="evenodd" d="M114.676 0.582566H110.283C110.283 0.582566 105.556 0.232056 102.13 6.13208C98.7024 12.032 94.7273 18.8779 94.7273 18.8779C94.7273 18.8779 90.7503 12.0319 87.3243 6.13208C83.8969 0.23218 79.1719 0.582566 79.1719 0.582566H74.7816C74.2071 0.582566 73.8519 1.20061 74.1201 1.69475L94.0693 36.0416C94.1987 36.2732 94.4447 36.4297 94.7273 36.4297C95.0129 36.4297 95.2605 36.27 95.3884 36.0348L115.298 1.75429C115.628 1.26325 115.281 0.584179 114.676 0.582566Z" fill="#1CBBEE"/>
<path id="Vector_3" fill-rule="evenodd" clip-rule="evenodd" d="M57.7128 0C67.9087 0 76.175 8.28526 76.175 18.5058C76.175 20.21 75.9446 21.8599 75.5139 23.4272H48.9796C50.6965 26.4834 53.9634 28.5477 57.7128 28.5477C60.2946 28.5477 62.6474 27.5686 64.4243 25.9606L69.8689 32.4327C66.6225 35.2838 62.368 37.0118 57.7128 37.0118C47.5165 37.0118 39.2505 28.7263 39.2505 18.5058C39.2505 8.28538 47.5164 0 57.7128 0ZM48.162 15.4652H67.2634C65.9772 11.4056 62.1882 8.46411 57.7127 8.46411C53.237 8.46411 49.4481 11.4056 48.1618 15.4652H48.162Z" fill="#1CBBEE"/>
<path id="Vector_4" d="M20.0278 45.5802V50.9979H21.022V49.0844H21.8995C22.5511 49.0844 23.0341 48.9158 23.3544 48.586C23.6843 48.2559 23.8451 47.8381 23.8451 47.3469C23.8451 46.8556 23.692 46.4452 23.3766 46.1005C23.0625 45.756 22.6017 45.5802 21.9799 45.5802H20.0278ZM21.022 48.168V46.5112H22.0021C22.5211 46.5112 22.8287 46.8705 22.8287 47.3321C22.8287 47.7938 22.5133 48.1679 21.9293 48.1679H21.022V48.168ZM28.0539 51.0933C28.6601 51.0933 29.1587 50.917 29.5454 50.5728C29.9334 50.2209 30.1308 49.715 30.1308 49.0552V45.5802H29.1208V48.9672C29.1208 49.7077 28.7042 50.1182 28.0539 50.1182C27.388 50.1182 26.9856 49.7222 26.9856 48.9672V45.5802H25.9835V49.0552C25.9835 49.715 26.1807 50.2209 26.569 50.5728C26.9572 50.917 27.4544 51.0933 28.0539 51.0933ZM36.7526 50.9979L35.3921 48.8498C36.1448 48.6078 36.5254 47.9772 36.5254 47.2736C36.5254 46.7972 36.3722 46.4012 36.0583 46.0711C35.744 45.7413 35.2977 45.5801 34.7121 45.5801H32.7016V50.9977H33.6959V48.9671H34.3617L35.5675 50.9977H36.7528L36.7526 50.9979ZM34.712 46.5112C35.2092 46.5112 35.5027 46.8483 35.5027 47.2808C35.5027 47.7206 35.2092 48.0652 34.603 48.0652H33.6957V46.5111H34.712V46.5112ZM38.9714 50.9979H39.9732V45.5802H38.9714V50.9979ZM43.6047 50.9979V48.7911H45.8283V47.8379H43.6047V46.5333H46.1422V45.5802H42.6088V50.9979H43.6047ZM48.361 50.9979H49.3631V45.5802H48.361V50.9979ZM55.5902 50.9979V50.0593H53.0007V48.7253H55.393V47.7939H53.0007V46.5184H55.5902V45.5803H51.9984V50.998H55.5902V50.9979ZM60.0408 50.9979C60.8517 50.9979 61.4954 50.7558 61.9564 50.2719C62.4235 49.7882 62.6588 49.1282 62.6588 48.3001C62.6588 47.4567 62.4314 46.7972 61.9705 46.3131C61.5097 45.8219 60.8817 45.5801 60.0831 45.5801H57.9984V50.9977H60.0408V50.9979ZM58.9942 46.5403H60.0831C60.5741 46.5403 60.9463 46.709 61.2179 47.0389C61.4876 47.3691 61.6204 47.7795 61.6204 48.278C61.6204 48.7838 61.4813 49.2091 61.2098 49.5391C60.9402 49.8688 60.566 50.0376 60.0768 50.0376H58.9942V46.5403ZM68.6884 50.9979L69.8943 47.3321L71.1157 50.9979H71.9063L73.7053 45.5802H72.6148L71.4958 49.2972L70.1941 45.5802H69.588L68.3145 49.2972L67.1735 45.5802H66.0848L67.8898 50.9979H68.6883H68.6884ZM79.8299 50.9979L77.7594 45.5802H76.9926L74.8996 50.9979H75.9603L76.4069 49.7662H78.3229L78.7695 50.9979H79.8299ZM78.0387 48.8644H76.6991L77.3727 47.0097L78.0388 48.8644H78.0387ZM82.4512 50.9979H83.4613V46.5479H85.0189V45.5802H80.8937V46.5479H82.4512V50.9979ZM90.7268 50.9979V50.0593H88.1371V48.7253H90.5296V47.7939H88.1371V46.5184H90.7268V45.5803H87.135V50.998H90.7268V50.9979ZM97.1876 50.9979L95.8273 48.8498C96.5801 48.6078 96.9602 47.9772 96.9602 47.2736C96.9602 46.7972 96.8074 46.4012 96.4933 46.0711C96.1777 45.7413 95.7327 45.5801 95.147 45.5801H93.1349V50.9977H94.1308V48.9671H94.7952L96.0027 50.9977H97.1879L97.1876 50.9979ZM95.1469 46.5112C95.6441 46.5112 95.9376 46.8483 95.9376 47.2808C95.9376 47.7206 95.6441 48.0652 95.0364 48.0652H94.1306V46.5111H95.1469V46.5112Z" fill="#67C2C7"/>
<path id="Vector_5" fill-rule="evenodd" clip-rule="evenodd" d="M112.685 40.2622C111.429 40.8551 110.056 41.2024 108.531 41.19L102.888 41.1926C103.164 52.7313 112.582 62.0001 124.159 62.0001C135.706 62.0001 145.156 52.7651 145.432 41.1926L139.79 41.19C138.266 41.2024 136.893 40.8551 135.636 40.2622C135.867 46.7732 130.664 52.1813 124.16 52.1813C117.669 52.1813 112.453 46.766 112.684 40.2622H112.685Z" fill="#67C2C7"/>
<path id="Vector_6" fill-rule="evenodd" clip-rule="evenodd" d="M124.161 0.578125C123.878 0.578125 123.63 0.7349 123.503 0.966217L105.971 30.8524C104.996 32.5113 104.111 34.2228 103.557 36.0795L108.57 36.0822C111.589 36.0822 114.371 34.7399 115.89 32.1038L124.16 18.1306L132.431 32.1038C133.949 34.7399 136.73 36.0822 139.749 36.0822L144.764 36.0795C144.21 34.2228 143.325 32.5112 142.348 30.8524L124.817 0.966217C124.689 0.734776 124.443 0.578125 124.16 0.578125H124.161Z" fill="#1CBBEE"/>
</g>
</g>
</g>
<defs>
<clipPath id="clip0_5114_4500">
<rect width="145.432" height="62" fill="white"/>
</clipPath>
</defs>
</svg>
