<svg width="82" height="82" viewBox="0 0 82 82" fill="none" xmlns="http://www.w3.org/2000/svg">
<g filter="url(#filter0_d_8_146)">
<circle cx="41" cy="21" r="21" fill="white"/>
</g>
<g clip-path="url(#clip0_8_146)">
<path d="M41.8724 21.8724L49.6621 21.8786C49.8951 21.8786 50.1186 21.786 50.2833 21.6213C50.4481 21.4565 50.5407 21.233 50.5407 21C50.5407 20.767 50.4481 20.5435 50.2833 20.3788C50.1186 20.214 49.8951 20.1214 49.6621 20.1214L41.8724 20.1276L41.8786 12.3379C41.8786 12.1049 41.786 11.8815 41.6213 11.7167C41.4565 11.5519 41.233 11.4594 41 11.4594C40.767 11.4594 40.5435 11.5519 40.3788 11.7167C40.214 11.8815 40.1214 12.1049 40.1214 12.3379L40.1276 20.1276L32.338 20.1214C32.2225 20.121 32.108 20.1434 32.0012 20.1873C31.8944 20.2313 31.7973 20.296 31.7157 20.3777C31.634 20.4594 31.5693 20.5564 31.5253 20.6632C31.4813 20.77 31.4589 20.8845 31.4594 21C31.4589 21.1155 31.4813 21.23 31.5253 21.3368C31.5693 21.4436 31.634 21.5406 31.7157 21.6223C31.7973 21.704 31.8944 21.7687 32.0012 21.8127C32.108 21.8567 32.2225 21.8791 32.338 21.8786L40.1276 21.8724L40.1214 29.6621C40.121 29.7776 40.1434 29.892 40.1874 29.9988C40.2313 30.1056 40.296 30.2027 40.3777 30.2844C40.4594 30.366 40.5564 30.4307 40.6632 30.4747C40.77 30.5187 40.8845 30.5411 41 30.5406C41.1155 30.5411 41.23 30.5187 41.3368 30.4747C41.4436 30.4307 41.5406 30.366 41.6223 30.2844C41.704 30.2027 41.7687 30.1056 41.8127 29.9988C41.8567 29.892 41.8791 29.7776 41.8786 29.6621L41.8724 21.8724Z" fill="#1CBBEE"/>
</g>
<defs>
<filter id="filter0_d_8_146" x="0" y="0" width="82" height="82" filterUnits="userSpaceOnUse" color-interpolation-filters="sRGB">
<feFlood flood-opacity="0" result="BackgroundImageFix"/>
<feColorMatrix in="SourceAlpha" type="matrix" values="0 0 0 0 0 0 0 0 0 0 0 0 0 0 0 0 0 0 127 0" result="hardAlpha"/>
<feOffset dy="20"/>
<feGaussianBlur stdDeviation="10"/>
<feColorMatrix type="matrix" values="0 0 0 0 0 0 0 0 0 0 0 0 0 0 0 0 0 0 0.2 0"/>
<feBlend mode="normal" in2="BackgroundImageFix" result="effect1_dropShadow_8_146"/>
<feBlend mode="normal" in="SourceGraphic" in2="effect1_dropShadow_8_146" result="shape"/>
</filter>
<clipPath id="clip0_8_146">
<rect width="21" height="21" fill="white" transform="translate(41 6.15076) rotate(45)"/>
</clipPath>
</defs>
</svg>
